<svg width="52" height="53" viewBox="0 0 52 53" fill="none" xmlns="http://www.w3.org/2000/svg">
<g id="BG Lighting">
<g id="Vector 22" filter="url(#filter0_f_1_553)">
<path d="M0.496216 19.6777C0.496216 16.5155 0.496216 11.7676 0.496216 7.81963C0.496216 3.92084 3.65681 0.760681 7.55561 0.760681H70.8204C74.7192 0.760681 77.8799 3.92128 77.8799 7.82007V15.8943" stroke="white" stroke-width="3.5297"/>
</g>
<g id="Vector 23" filter="url(#filter1_f_1_553)">
<path d="M19.1226 78.5942C15.9604 78.5942 11.2125 78.5942 7.26452 78.5942C3.36572 78.5942 0.205566 75.4336 0.205566 71.5348L0.205563 8.26994C0.205563 4.37115 3.36616 1.21054 7.26496 1.21054L15.3392 1.21054" stroke="white" stroke-width="3.5297"/>
</g>
<g id="Vector 24" filter="url(#filter2_f_1_553)">
<path d="M83.5751 1.44812L77.7242 71.5476C77.4279 75.0967 74.5345 77.8693 70.9761 78.014L4.44848 80.7194" stroke="#AFC2EE" stroke-width="3.5297"/>
</g>
</g>
<defs>
<filter id="filter0_f_1_553" x="-8.32807" y="-8.06354" width="95.0321" height="34.8006" filterUnits="userSpaceOnUse" color-interpolation-filters="sRGB">
<feFlood flood-opacity="0" result="BackgroundImageFix"/>
<feBlend mode="normal" in="SourceGraphic" in2="BackgroundImageFix" result="shape"/>
<feGaussianBlur stdDeviation="3.5297" result="effect1_foregroundBlur_1_553"/>
</filter>
<filter id="filter1_f_1_553" x="-8.61872" y="-7.61371" width="34.8007" height="95.0321" filterUnits="userSpaceOnUse" color-interpolation-filters="sRGB">
<feFlood flood-opacity="0" result="BackgroundImageFix"/>
<feBlend mode="normal" in="SourceGraphic" in2="BackgroundImageFix" result="shape"/>
<feGaussianBlur stdDeviation="3.5297" result="effect1_foregroundBlur_1_553"/>
</filter>
<filter id="filter2_f_1_553" x="-2.68268" y="-5.75806" width="95.0759" height="95.3002" filterUnits="userSpaceOnUse" color-interpolation-filters="sRGB">
<feFlood flood-opacity="0" result="BackgroundImageFix"/>
<feBlend mode="normal" in="SourceGraphic" in2="BackgroundImageFix" result="shape"/>
<feGaussianBlur stdDeviation="3.5297" result="effect1_foregroundBlur_1_553"/>
</filter>
</defs>
</svg>
