<svg width="23" height="23" viewBox="0 0 23 23" fill="none" xmlns="http://www.w3.org/2000/svg">
<g id="Star 10">
<path id="Star 10_2" d="M10.4223 2.94995C10.6806 2.15493 11.8054 2.15493 12.0637 2.94995L13.5154 7.41802C13.631 7.77357 13.9623 8.01429 14.3361 8.01429H19.0341C19.8701 8.01429 20.2176 9.08398 19.5414 9.57533L15.7406 12.3367C15.4381 12.5565 15.3116 12.946 15.4271 13.3015L16.8789 17.7696C17.1372 18.5646 16.2273 19.2257 15.551 18.7344L11.7502 15.9729C11.4478 15.7532 11.0382 15.7532 10.7358 15.9729L6.93501 18.7344C6.25873 19.2257 5.3488 18.5646 5.60711 17.7696L7.05888 13.3015C7.1744 12.946 7.04785 12.5565 6.7454 12.3367L2.94463 9.57533C2.26835 9.08398 2.61591 8.01429 3.45185 8.01429H8.14986C8.5237 8.01429 8.85502 7.77357 8.97054 7.41802L10.4223 2.94995Z" fill="#FFB649"/>
</g>
</svg>
