<svg width="12" height="17" viewBox="0 0 12 17" fill="none" xmlns="http://www.w3.org/2000/svg">
<path id="Subtract" fill-rule="evenodd" clip-rule="evenodd" d="M9.69541 0.948925C9.43709 0.153906 8.31235 0.153907 8.05403 0.948925L6.60227 5.417C6.48674 5.77254 6.15542 6.01326 5.78158 6.01326H1.08357C0.247638 6.01326 -0.0999262 7.08295 0.576357 7.5743L4.37713 10.3357C4.67957 10.5555 4.80613 10.945 4.6906 11.3005L3.23884 15.7686C2.98052 16.5636 3.89045 17.2247 4.56674 16.7333L8.36751 13.9719C8.66995 13.7522 9.07949 13.7522 9.38193 13.9719L11.6182 15.5966V5.93927C11.399 5.84204 11.2246 5.65532 11.1472 5.417L9.69541 0.948925Z" fill="#FFB649"/>
</svg>
